<?xml version="1.0" standalone="no"?>
<!DOCTYPE svg PUBLIC "-//W3C//DTD SVG 20010904//EN"
 "http://www.w3.org/TR/2001/REC-SVG-20010904/DTD/svg10.dtd">
<svg version="1.0" xmlns="http://www.w3.org/2000/svg"
 width="256.000000pt" height="256.000000pt" viewBox="0 0 256.000000 256.000000"
 preserveAspectRatio="xMidYMid meet">
<metadata>
Created by potrace 1.14, written by Peter Selinger 2001-2017
</metadata>
<g transform="translate(0.000000,256.000000) scale(0.100000,-0.100000)"
fill="#000000" stroke="none">
<path d="M1165 2280 c-116 -25 -239 -93 -313 -173 -147 -161 -190 -340 -138
-572 6 -26 29 -79 113 -255 152 -317 162 -344 166 -463 5 -129 -11 -121 276
-125 294 -3 282 -8 287 121 4 122 14 149 176 487 105 218 119 263 124 381 6
171 -49 312 -171 434 -71 72 -152 123 -242 151 -58 18 -222 27 -278 14z"/>
<path d="M1010 610 c0 -20 5 -41 12 -48 9 -9 78 -12 248 -12 265 0 274 2 268
60 l-3 35 -262 1 -263 0 0 -36z"/>
<path d="M1042 465 c2 -30 8 -42 26 -50 12 -5 22 -17 22 -25 0 -24 21 -40 51
-40 18 0 28 -6 32 -19 7 -27 65 -61 102 -61 37 0 91 32 100 59 4 15 15 21 34
21 30 0 51 16 51 40 0 8 10 20 23 25 17 8 23 20 25 50 l3 40 -236 0 -236 0 3
-40z"/>
</g>
</svg>
